<?xml version="1.0" encoding="UTF-8" standalone="no"?>
<!-- Created with Inkscape (http://www.inkscape.org/) -->

<svg
   xmlns:dc="http://purl.org/dc/elements/1.1/"
   xmlns:cc="http://creativecommons.org/ns#"
   xmlns:rdf="http://www.w3.org/1999/02/22-rdf-syntax-ns#"
   xmlns:svg="http://www.w3.org/2000/svg"
   xmlns="http://www.w3.org/2000/svg"
   xmlns:sodipodi="http://sodipodi.sourceforge.net/DTD/sodipodi-0.dtd"
   xmlns:inkscape="http://www.inkscape.org/namespaces/inkscape"
   width="239.35889"
   height="76.819206"
   id="svg2"
   version="1.1"
   inkscape:version="0.48.5 r10040"
   sodipodi:docname="New document 1">
  <defs
     id="defs4" />
  <sodipodi:namedview
     id="base"
     pagecolor="#ffffff"
     bordercolor="#666666"
     borderopacity="1.0"
     inkscape:pageopacity="0.0"
     inkscape:pageshadow="2"
     inkscape:zoom="1.7749485"
     inkscape:cx="119.85475"
     inkscape:cy="62.623593"
     inkscape:document-units="px"
     inkscape:current-layer="layer1"
     showgrid="false"
     fit-margin-top="0"
     fit-margin-left="0"
     fit-margin-right="0"
     fit-margin-bottom="0"
     inkscape:window-width="1280"
     inkscape:window-height="645"
     inkscape:window-x="-9"
     inkscape:window-y="-9"
     inkscape:window-maximized="1" />
  <metadata
     id="metadata7">
    <rdf:RDF>
      <cc:Work
         rdf:about="">
        <dc:format>image/svg+xml</dc:format>
        <dc:type
           rdf:resource="http://purl.org/dc/dcmitype/StillImage" />
        <dc:title></dc:title>
      </cc:Work>
    </rdf:RDF>
  </metadata>
  <g
     inkscape:label="Layer 1"
     inkscape:groupmode="layer"
     id="layer1"
     transform="translate(-141.65887,-284.11754)">
    <path
       inkscape:connector-curvature="0"
       style="opacity:0.53183522;fill:#ff8080;fill-opacity:1;stroke:#ff0000;stroke-width:3.51699996;stroke-miterlimit:4;stroke-opacity:1;stroke-dashoffset:0"
       d="m 143.41737,285.87604 235.84189,0 0,73.30221 -235.84189,0 z"
       id="rect2985" />
    <path
       style="font-size:30.99575233px;font-style:normal;font-weight:bold;line-height:125%;letter-spacing:0px;word-spacing:0px;fill:#ffff00;fill-opacity:1;stroke:#2b0000;stroke-width:0.60000002;stroke-miterlimit:4;font-family:Sans;-inkscape-font-specification:Sans Bold"
       id="path3832"
       d="m 157.72317,322.8178 0,-25.59986 5.81092,0 3.48918,17.46239 3.44982,-17.46239 5.82403,0 0,25.59986 -3.60723,0 0,-20.15159 -3.8171,20.15159 -3.7384,0 -3.80399,-20.15159 0,20.15159 z"
       inkscape:connector-curvature="0" />
    <path
       style="font-size:30.99575233px;font-style:normal;font-weight:bold;line-height:125%;letter-spacing:0px;word-spacing:0px;fill:#ffff00;fill-opacity:1;stroke:#2b0000;stroke-width:0.60000002;stroke-miterlimit:4;font-family:Sans;-inkscape-font-specification:Sans Bold"
       id="path3834"
       d="m 178.40899,304.27275 3.92204,0 3.33177,13.16663 3.25306,-13.16663 3.81711,0 -4.91895,17.84656 -0.87885,3.23054 c -0.32357,1.08266 -0.63183,1.90921 -0.92477,2.47966 -0.29295,0.57043 -0.62963,1.03318 -1.01002,1.38825 -0.38041,0.35506 -0.84825,0.63155 -1.40354,0.82947 -0.5553,0.1979 -1.18274,0.29685 -1.88232,0.29685 -0.70833,0 -1.40354,-0.099 -2.08563,-0.29685 l -0.32793,-3.84173 c 0.57716,0.15134 1.09747,0.22701 1.56095,0.22701 0.85698,0 1.49098,-0.3347 1.90199,-1.00409 0.411,-0.66939 0.72581,-1.52214 0.94443,-2.55823 z"
       inkscape:connector-curvature="0" />
    <path
       style="font-size:30.99575233px;font-style:normal;font-weight:bold;line-height:125%;letter-spacing:0px;word-spacing:0px;fill:#ffff00;fill-opacity:1;stroke:#2b0000;stroke-width:0.60000002;stroke-miterlimit:4;font-family:Sans;-inkscape-font-specification:Sans Bold"
       id="path3836"
       d="m 202.45281,304.27275 3.4367,0 0,2.72412 c 0.44598,-0.9313 1.04937,-1.68801 1.81018,-2.2701 0.76078,-0.58206 1.60466,-0.87309 2.53162,-0.87312 1.61777,3e-5 2.9907,0.84403 4.11879,2.53204 1.12807,1.68805 1.69211,4.03965 1.69212,7.05481 -10e-6,3.09667 -0.56843,5.50357 -1.70523,7.22069 -1.13684,1.71713 -2.51415,2.5757 -4.13192,2.5757 -0.76955,0 -1.46695,-0.20372 -2.09219,-0.61118 -0.62526,-0.40745 -1.28331,-1.10594 -1.97414,-2.09549 l 0,9.34238 -3.68593,0 z m 3.64657,8.9582 c 0,2.08386 0.31044,3.62346 0.93133,4.61881 0.62087,0.99535 1.37729,1.49303 2.26928,1.49303 0.85697,0 1.56968,-0.45693 2.13809,-1.3708 0.56841,-0.91386 0.85261,-2.41272 0.85263,-4.49656 -2e-5,-1.94414 -0.29297,-3.38769 -0.87886,-4.33067 -0.58591,-0.94296 -1.31173,-1.41445 -2.17746,-1.41446 -0.90071,10e-6 -1.6484,0.46277 -2.24303,1.38826 -0.59465,0.92552 -0.89198,2.29632 -0.89198,4.11239 z"
       inkscape:connector-curvature="0" />
    <path
       style="font-size:30.99575233px;font-style:normal;font-weight:bold;line-height:125%;letter-spacing:0px;word-spacing:0px;fill:#ffff00;fill-opacity:1;stroke:#2b0000;stroke-width:0.60000002;stroke-miterlimit:4;font-family:Sans;-inkscape-font-specification:Sans Bold"
       id="path3838"
       d="m 221.73508,309.93057 -3.34489,-0.80328 c 0.37603,-1.79279 1.02314,-3.11993 1.94135,-3.98143 0.9182,-0.86145 2.28239,-1.29218 4.09257,-1.29221 1.64401,3e-5 2.86828,0.25904 3.67281,0.77708 0.80451,0.51807 1.37074,1.17581 1.69868,1.97325 0.32792,0.79746 0.49188,2.26138 0.4919,4.39179 l -0.0393,5.72766 c -1e-5,1.62982 0.059,2.83182 0.17708,3.60598 0.11805,0.77417 0.33885,1.60363 0.66242,2.48839 l -3.64658,0 c -0.0962,-0.32596 -0.21426,-0.8091 -0.35417,-1.44938 -0.0612,-0.29104 -0.10495,-0.48313 -0.13116,-0.57626 -0.62964,0.81492 -1.30299,1.4261 -2.02006,1.83355 -0.71708,0.40746 -1.48224,0.61118 -2.2955,0.61118 -1.43416,0 -2.56442,-0.51804 -3.3908,-1.55415 -0.82638,-1.0361 -1.23957,-2.34577 -1.23957,-3.92903 0,-1.04774 0.18801,-1.98197 0.56404,-2.80271 0.37602,-0.82073 0.90289,-1.44937 1.58062,-1.88595 0.67772,-0.43654 1.65495,-0.8178 2.93169,-1.14378 1.72272,-0.43073 2.91638,-0.83236 3.58099,-1.20491 l 0,-0.48894 c -1e-5,-0.94296 -0.1749,-1.61526 -0.52468,-2.01691 -0.3498,-0.40161 -1.01004,-0.60243 -1.9807,-0.60244 -0.65586,10e-6 -1.16743,0.17172 -1.53471,0.51513 -0.36729,0.34345 -0.66461,0.94589 -0.89197,1.80737 z m 4.93206,3.98141 c -0.47222,0.20956 -1.2199,0.45986 -2.24303,0.75088 -1.02315,0.29105 -1.69213,0.57627 -2.00693,0.85566 -0.48097,0.45403 -0.72145,1.03029 -0.72145,1.72878 0,0.68686 0.19238,1.28058 0.57716,1.78116 0.38476,0.5006 0.87447,0.75089 1.46912,0.75088 0.6646,1e-5 1.2986,-0.29104 1.90199,-0.87312 0.44598,-0.44236 0.73893,-0.98371 0.87885,-1.624 0.0962,-0.41909 0.14428,-1.21653 0.14429,-2.39235 z"
       inkscape:connector-curvature="0" />
    <path
       style="font-size:30.99575233px;font-style:normal;font-weight:bold;line-height:125%;letter-spacing:0px;word-spacing:0px;fill:#ffff00;fill-opacity:1;stroke:#2b0000;stroke-width:0.60000002;stroke-miterlimit:4;font-family:Sans;-inkscape-font-specification:Sans Bold"
       id="path3840"
       d="m 232.63547,317.5267 3.69905,-0.75088 c 0.1574,0.95461 0.47658,1.6793 0.95756,2.17406 0.48095,0.49478 1.1543,0.74215 2.02004,0.74215 0.95318,0 1.67025,-0.23282 2.15122,-0.69849 0.32355,-0.32596 0.48532,-0.76252 0.48534,-1.30968 -2e-5,-0.37253 -0.0875,-0.68103 -0.26235,-0.92551 -0.18364,-0.23282 -0.59465,-0.44819 -1.23301,-0.6461 -2.97324,-0.87312 -4.85774,-1.67056 -5.65352,-2.39236 -1.10184,-1.00116 -1.65276,-2.39232 -1.65276,-4.1735 0,-1.60652 0.47659,-2.95695 1.42977,-4.05127 0.95319,-1.0943 2.43105,-1.64144 4.43361,-1.64147 1.90636,3e-5 3.32302,0.41329 4.24998,1.23983 0.92693,0.82657 1.5653,2.04894 1.91511,3.6671 l -3.47606,0.85566 c -0.14867,-0.72176 -0.43069,-1.27475 -0.84606,-1.65893 -0.41538,-0.38416 -1.00784,-0.57624 -1.77738,-0.57625 -0.97067,1e-5 -1.66589,0.18045 -2.08563,0.54133 -0.27984,0.25613 -0.41975,0.58792 -0.41975,0.99536 0,0.34925 0.12242,0.64612 0.36728,0.89057 0.3323,0.32598 1.48005,0.78582 3.44327,1.37953 1.96319,0.59374 3.33393,1.32134 4.11224,2.1828 0.76952,0.87313 1.15429,2.08967 1.15431,3.64964 -2e-5,1.69967 -0.53345,3.16069 -1.6003,4.38306 -1.06688,1.22236 -2.64532,1.83354 -4.73531,1.83354 -1.89762,0 -3.39954,-0.51223 -4.50576,-1.53668 -1.10622,-1.02446 -1.82984,-2.41563 -2.17089,-4.17351 z"
       inkscape:connector-curvature="0" />
    <path
       style="font-size:30.99575233px;font-style:normal;font-weight:bold;line-height:125%;letter-spacing:0px;word-spacing:0px;fill:#ffff00;fill-opacity:1;stroke:#2b0000;stroke-width:0.60000002;stroke-miterlimit:4;font-family:Sans;-inkscape-font-specification:Sans Bold"
       id="path3842"
       d="m 255.27574,304.27275 0,3.91157 -2.5185,0 0,7.4739 c 0,1.51341 0.024,2.39526 0.0721,2.64556 0.0481,0.25029 0.1574,0.45693 0.32794,0.61991 0.17051,0.16299 0.3782,0.24448 0.62306,0.24447 0.34104,10e-6 0.83512,-0.15716 1.48224,-0.47148 l 0.31482,3.8068 c -0.85701,0.48894 -1.82767,0.73341 -2.91202,0.73341 -0.66461,0 -1.26363,-0.14842 -1.79706,-0.44528 -0.53343,-0.29687 -0.92476,-0.68104 -1.17399,-1.15253 -0.24923,-0.47147 -0.42193,-1.10885 -0.51813,-1.91212 -0.0787,-0.57043 -0.11805,-1.72295 -0.11805,-3.45756 l 0,-8.08508 -1.69212,0 0,-3.91157 1.69212,0 0,-3.68456 3.69905,-2.86383 0,6.54839 z"
       inkscape:connector-curvature="0" />
    <path
       style="font-size:30.99575233px;font-style:normal;font-weight:bold;line-height:125%;letter-spacing:0px;word-spacing:0px;fill:#ffff00;fill-opacity:1;stroke:#2b0000;stroke-width:0.60000002;stroke-miterlimit:4;font-family:Sans;-inkscape-font-specification:Sans Bold"
       id="path3844"
       d="m 265.9269,316.91551 3.67283,0.82073 c -0.47224,1.79282 -1.21773,3.15779 -2.23649,4.09494 -1.01878,0.93714 -2.29333,1.40571 -3.82366,1.40571 -2.42231,0 -4.215,-1.05356 -5.37805,-3.16069 -0.91821,-1.68802 -1.3773,-3.81843 -1.3773,-6.39123 0,-3.07336 0.60338,-5.48026 1.81017,-7.22069 1.20677,-1.74041 2.73274,-2.6106 4.5779,-2.61063 2.0725,3e-5 3.70778,0.91098 4.90583,2.73286 1.19802,1.82193 1.77081,4.613 1.71835,8.37321 l -9.2345,0 c 0.0263,1.45521 0.32355,2.58736 0.89196,3.39644 0.56841,0.80909 1.27674,1.21364 2.12499,1.21364 0.57715,0 1.06248,-0.20954 1.45601,-0.62865 0.39351,-0.4191 0.69083,-1.0943 0.89196,-2.02564 z m 0.20988,-4.95932 c -0.0263,-1.42026 -0.3017,-2.50001 -0.82638,-3.23926 -0.5247,-0.73923 -1.16307,-1.10885 -1.91511,-1.10886 -0.80453,10e-6 -1.46913,0.39001 -1.99382,1.16998 -0.52469,0.77999 -0.78266,1.83937 -0.77391,3.17814 z"
       inkscape:connector-curvature="0" />
    <path
       style="font-size:30.99575233px;font-style:normal;font-weight:bold;line-height:125%;letter-spacing:0px;word-spacing:0px;fill:#ffff00;fill-opacity:1;stroke:#2b0000;stroke-width:0.60000002;stroke-miterlimit:4;font-family:Sans;-inkscape-font-specification:Sans Bold"
       id="path3846"
       d="m 280.10659,322.8178 0,-25.59986 3.68593,0 0,9.22015 c 1.13682,-1.72294 2.48352,-2.58441 4.0401,-2.58444 1.69648,3e-5 3.10001,0.81784 4.21062,2.45347 1.11057,1.63565 1.66587,3.98434 1.66588,7.04607 -10e-6,3.16652 -0.56624,5.60543 -1.69868,7.31673 -1.13246,1.71132 -2.50758,2.56697 -4.12536,2.56697 -0.79578,0 -1.58062,-0.26484 -2.35453,-0.79453 -0.77393,-0.5297 -1.44071,-1.31259 -2.00038,-2.34869 l 0,2.72413 z m 3.6597,-9.67416 c -1e-5,1.92087 0.22735,3.34114 0.68209,4.26082 0.63836,1.30386 1.48661,1.9558 2.54474,1.95578 0.81326,2e-5 1.50628,-0.46274 2.07907,-1.38825 0.57278,-0.9255 0.85917,-2.38361 0.85918,-4.37433 -1e-5,-2.11876 -0.2886,-3.64672 -0.86574,-4.58387 -0.57716,-0.93714 -1.3161,-1.40571 -2.2168,-1.40572 -0.88324,10e-6 -1.6178,0.45694 -2.20369,1.37079 -0.58591,0.91387 -0.87886,2.30214 -0.87885,4.16478 z"
       inkscape:connector-curvature="0" />
    <path
       style="font-size:30.99575233px;font-style:normal;font-weight:bold;line-height:125%;letter-spacing:0px;word-spacing:0px;fill:#ffff00;fill-opacity:1;stroke:#2b0000;stroke-width:0.60000002;stroke-miterlimit:4;font-family:Sans;-inkscape-font-specification:Sans Bold"
       id="path3848"
       d="m 305.85564,322.8178 0,-2.77652 c -0.50721,0.98954 -1.17399,1.76952 -2.00037,2.33996 -0.82639,0.57043 -1.69868,0.85565 -2.61687,0.85565 -0.93571,0 -1.77521,-0.27358 -2.51851,-0.82072 -0.74331,-0.54716 -1.28112,-1.31551 -1.61342,-2.30504 -0.3323,-0.98953 -0.49845,-2.35742 -0.49844,-4.10366 l 0,-11.73472 3.68592,0 0,8.52165 c -10e-6,2.60771 0.0678,4.20552 0.20332,4.79342 0.13554,0.5879 0.38258,1.05356 0.74113,1.39699 0.35852,0.34343 0.81325,0.51514 1.36418,0.51514 0.62962,0 1.19365,-0.22992 1.69212,-0.68977 0.49844,-0.45984 0.83949,-1.03028 1.02314,-1.71131 0.18363,-0.68103 0.27545,-2.34869 0.27546,-5.00297 l 0,-7.82315 3.68593,0 0,18.54505 z"
       inkscape:connector-curvature="0" />
    <path
       style="font-size:30.99575233px;font-style:normal;font-weight:bold;line-height:125%;letter-spacing:0px;word-spacing:0px;fill:#ffff00;fill-opacity:1;stroke:#2b0000;stroke-width:0.60000002;stroke-miterlimit:4;font-family:Sans;-inkscape-font-specification:Sans Bold"
       id="path3850"
       d="m 319.49752,304.27275 0,3.91157 -2.51849,0 0,7.4739 c 0,1.51341 0.024,2.39526 0.0721,2.64556 0.0481,0.25029 0.15741,0.45693 0.32794,0.61991 0.17051,0.16299 0.3782,0.24448 0.62306,0.24447 0.34105,10e-6 0.83513,-0.15716 1.48225,-0.47148 l 0.31481,3.8068 c -0.857,0.48894 -1.82767,0.73341 -2.91202,0.73341 -0.66461,0 -1.26363,-0.14842 -1.79706,-0.44528 -0.53343,-0.29687 -0.92476,-0.68104 -1.17398,-1.15253 -0.24923,-0.47147 -0.42194,-1.10885 -0.51814,-1.91212 -0.0787,-0.57043 -0.11805,-1.72295 -0.11805,-3.45756 l 0,-8.08508 -1.69212,0 0,-3.91157 1.69212,0 0,-3.68456 3.69905,-2.86383 0,6.54839 z"
       inkscape:connector-curvature="0" />
    <path
       style="font-size:30.99575233px;font-style:normal;font-weight:bold;line-height:125%;letter-spacing:0px;word-spacing:0px;fill:#ffff00;fill-opacity:1;stroke:#2b0000;stroke-width:0.60000002;stroke-miterlimit:4;font-family:Sans;-inkscape-font-specification:Sans Bold"
       id="path3852"
       d="m 328.46969,304.27275 0,3.91157 -2.5185,0 0,7.4739 c -10e-6,1.51341 0.024,2.39526 0.0721,2.64556 0.0481,0.25029 0.1574,0.45693 0.32793,0.61991 0.17052,0.16299 0.3782,0.24448 0.62306,0.24447 0.34104,10e-6 0.83512,-0.15716 1.48225,-0.47148 l 0.31481,3.8068 c -0.857,0.48894 -1.82767,0.73341 -2.91201,0.73341 -0.66462,0 -1.26364,-0.14842 -1.79706,-0.44528 -0.53344,-0.29687 -0.92477,-0.68104 -1.17399,-1.15253 -0.24923,-0.47147 -0.42194,-1.10885 -0.51813,-1.91212 -0.0787,-0.57043 -0.11805,-1.72295 -0.11805,-3.45756 l 0,-8.08508 -1.69212,0 0,-3.91157 1.69212,0 0,-3.68456 3.69904,-2.86383 0,6.54839 z"
       inkscape:connector-curvature="0" />
    <path
       style="font-size:30.99575233px;font-style:normal;font-weight:bold;line-height:125%;letter-spacing:0px;word-spacing:0px;fill:#ffff00;fill-opacity:1;stroke:#2b0000;stroke-width:0.60000002;stroke-miterlimit:4;font-family:Sans;-inkscape-font-specification:Sans Bold"
       id="path3854"
       d="m 330.20116,313.28334 c 0,-1.62981 0.30169,-3.20724 0.90508,-4.73231 0.60339,-1.52503 1.4582,-2.68918 2.56442,-3.49247 1.10621,-0.80326 2.34141,-1.20488 3.7056,-1.20491 2.10748,3e-5 3.83458,0.91098 5.1813,2.73286 1.34667,1.82193 2.02003,4.12405 2.02004,6.90637 -1e-5,2.80564 -0.67992,5.13104 -2.03972,6.97623 -1.35983,1.84519 -3.07162,2.76778 -5.13539,2.76778 -1.27674,0 -2.49445,-0.38417 -3.65313,-1.15251 -1.15869,-0.76835 -2.03973,-1.89467 -2.64312,-3.37898 -0.60339,-1.48429 -0.90508,-3.29164 -0.90508,-5.42206 z m 3.77775,0.26194 c 0,1.83938 0.32792,3.24801 0.98379,4.22589 0.65585,0.97789 1.46475,1.46684 2.42668,1.46684 0.96192,0 1.76862,-0.48895 2.42012,-1.46684 0.65147,-0.97788 0.97722,-2.39815 0.97723,-4.26082 -10e-6,-1.81608 -0.32576,-3.21307 -0.97723,-4.19098 -0.6515,-0.97788 -1.4582,-1.46681 -2.42012,-1.46684 -0.96193,3e-5 -1.77083,0.48896 -2.42668,1.46684 -0.65587,0.97791 -0.98379,2.38654 -0.98379,4.22591 z"
       inkscape:connector-curvature="0" />
    <path
       style="font-size:30.99575233px;font-style:normal;font-weight:bold;line-height:125%;letter-spacing:0px;word-spacing:0px;fill:#ffff00;fill-opacity:1;stroke:#2b0000;stroke-width:0.60000002;stroke-miterlimit:4;font-family:Sans;-inkscape-font-specification:Sans Bold"
       id="path3856"
       d="m 360.14771,322.8178 -3.68593,0 0,-9.46461 c -10e-6,-2.00234 -0.0787,-3.29747 -0.23611,-3.88538 -0.15742,-0.58788 -0.4132,-1.04482 -0.76736,-1.3708 -0.35416,-0.32595 -0.78048,-0.48893 -1.27892,-0.48894 -0.63838,10e-6 -1.21116,0.23285 -1.71835,0.69849 -0.50721,0.46568 -0.85481,1.08268 -1.04282,1.85102 -0.18801,0.76835 -0.28203,2.18862 -0.28202,4.26081 l 0,8.39941 -3.68593,0 0,-18.54505 3.42359,0 0,2.72412 c 1.21552,-2.09546 2.74585,-3.14319 4.59101,-3.14322 0.81326,3e-5 1.55657,0.19502 2.22993,0.58499 0.67334,0.39001 1.18272,0.88769 1.52815,1.49303 0.34541,0.60538 0.58589,1.29224 0.72145,2.06057 0.13553,0.76836 0.2033,1.86849 0.20331,3.30039 z"
       inkscape:connector-curvature="0" />
    <path
       id="path3795"
       style="font-size:17.6733284px;font-style:normal;font-weight:bold;line-height:125%;letter-spacing:0px;word-spacing:0px;fill:#000000;fill-opacity:1;stroke:#ffff00;stroke-width:0.671;stroke-miterlimit:4;font-family:Sans;-inkscape-font-specification:Sans Bold"
       d="m 184.53412,349.68557 -2.19888,0 0,-5.15799 c -1e-5,-1.09123 -0.047,-1.79703 -0.14085,-2.11744 -0.0939,-0.32038 -0.24651,-0.56939 -0.45778,-0.74705 -0.21129,-0.17763 -0.46561,-0.26646 -0.76296,-0.26646 -0.38083,0 -0.72254,0.12689 -1.02511,0.38066 -0.30257,0.25379 -0.50994,0.59004 -0.6221,1.00876 -0.11216,0.41874 -0.16825,1.19275 -0.16824,2.32204 l 0,4.57748 -2.19888,0 0,-10.10661 2.04238,0 0,1.48459 c 0.72513,-1.14199 1.63807,-1.71298 2.73882,-1.71299 0.48516,1e-5 0.92858,0.10631 1.33029,0.31881 0.40168,0.21255 0.70556,0.48377 0.91163,0.81367 0.20605,0.32991 0.34952,0.70423 0.43038,1.12296 0.0809,0.41873 0.12129,1.01827 0.1213,1.79863 z"
       inkscape:connector-curvature="0" />
    <path
       id="path3797"
       style="font-size:17.6733284px;font-style:normal;font-weight:bold;line-height:125%;letter-spacing:0px;word-spacing:0px;fill:#000000;fill-opacity:1;stroke:#ffff00;stroke-width:0.671;stroke-miterlimit:4;font-family:Sans;-inkscape-font-specification:Sans Bold"
       d="m 186.26349,344.48952 c 0,-0.88821 0.17998,-1.74787 0.53994,-2.579 0.35996,-0.8311 0.8699,-1.46554 1.52982,-1.90331 0.65993,-0.43776 1.3968,-0.65664 2.21063,-0.65665 1.25724,1e-5 2.28756,0.49647 3.09096,1.48935 0.80337,0.9929 1.20507,2.24751 1.20508,3.76381 -1e-5,1.529 -0.40562,2.79629 -1.21683,3.80187 -0.81121,1.00559 -1.8324,1.50838 -3.06356,1.50838 -0.76166,0 -1.4881,-0.20936 -2.17932,-0.62809 -0.69123,-0.41873 -1.21682,-1.03255 -1.57678,-1.84146 -0.35996,-0.80891 -0.53994,-1.79388 -0.53994,-2.9549 z m 2.25366,0.14274 c -10e-6,1.00243 0.19562,1.77009 0.58689,2.30302 0.39126,0.53293 0.87381,0.79939 1.44766,0.79939 0.57385,0 1.0551,-0.26646 1.44375,-0.79939 0.38865,-0.53293 0.58298,-1.30695 0.58298,-2.32204 0,-0.98972 -0.19433,-1.75105 -0.58298,-2.28399 -0.38865,-0.53292 -0.8699,-0.79938 -1.44375,-0.79939 -0.57385,1e-5 -1.0564,0.26647 -1.44766,0.79939 -0.39127,0.53294 -0.5869,1.30061 -0.58689,2.30301 z"
       inkscape:connector-curvature="0" />
    <path
       id="path3799"
       style="font-size:17.6733284px;font-style:normal;font-weight:bold;line-height:125%;letter-spacing:0px;word-spacing:0px;fill:#000000;fill-opacity:1;stroke:#ffff00;stroke-width:0.671;stroke-miterlimit:4;font-family:Sans;-inkscape-font-specification:Sans Bold"
       d="m 200.38016,339.57896 0,2.13171 -1.50244,0 0,4.0731 c -1e-5,0.82478 0.0143,1.30536 0.0431,1.44177 0.0286,0.1364 0.0939,0.24902 0.19563,0.33784 0.10172,0.0888 0.22562,0.13322 0.37169,0.13322 0.20346,0 0.4982,-0.0857 0.88425,-0.25695 l 0.18781,2.07463 c -0.51125,0.26645 -1.09032,0.39969 -1.7372,0.39969 -0.39648,0 -0.75383,-0.0809 -1.07205,-0.24268 -0.31823,-0.16178 -0.55168,-0.37114 -0.70035,-0.62809 -0.14869,-0.25694 -0.25172,-0.6043 -0.3091,-1.04206 -0.047,-0.31088 -0.0705,-0.93897 -0.0705,-1.88429 l 0,-4.40618 -1.00945,0 0,-2.13171 1.00945,0 0,-2.008 2.20671,-1.56071 0,3.56871 z"
       inkscape:connector-curvature="0" />
    <path
       id="path3801"
       style="font-size:17.6733284px;font-style:normal;font-weight:bold;line-height:125%;letter-spacing:0px;word-spacing:0px;fill:#000000;fill-opacity:1;stroke:#ffff00;stroke-width:0.671;stroke-miterlimit:4;font-family:Sans;-inkscape-font-specification:Sans Bold"
       d="m 213.92559,349.68557 -2.19888,0 0,-5.15799 c -1e-5,-1.09123 -0.047,-1.79703 -0.14085,-2.11744 -0.0939,-0.32038 -0.2465,-0.56939 -0.45778,-0.74705 -0.21129,-0.17763 -0.46561,-0.26646 -0.76296,-0.26646 -0.38083,0 -0.72253,0.12689 -1.0251,0.38066 -0.30258,0.25379 -0.50994,0.59004 -0.6221,1.00876 -0.11217,0.41874 -0.16825,1.19275 -0.16824,2.32204 l 0,4.57748 -2.19889,0 0,-10.10661 2.04239,0 0,1.48459 c 0.72512,-1.14199 1.63806,-1.71298 2.73881,-1.71299 0.48516,1e-5 0.92858,0.10631 1.33029,0.31881 0.40168,0.21255 0.70556,0.48377 0.91164,0.81367 0.20605,0.32991 0.34951,0.70423 0.43038,1.12296 0.0809,0.41873 0.12128,1.01827 0.12129,1.79863 z"
       inkscape:connector-curvature="0" />
    <path
       id="path3803"
       style="font-size:17.6733284px;font-style:normal;font-weight:bold;line-height:125%;letter-spacing:0px;word-spacing:0px;fill:#000000;fill-opacity:1;stroke:#ffff00;stroke-width:0.671;stroke-miterlimit:4;font-family:Sans;-inkscape-font-specification:Sans Bold"
       d="m 216.1636,338.20857 0,-2.47431 2.19888,0 0,2.47431 z m 0,11.477 0,-10.10661 2.19888,0 0,10.10661 z"
       inkscape:connector-curvature="0" />
    <path
       id="path3805"
       style="font-size:17.6733284px;font-style:normal;font-weight:bold;line-height:125%;letter-spacing:0px;word-spacing:0px;fill:#000000;fill-opacity:1;stroke:#ffff00;stroke-width:0.671;stroke-miterlimit:4;font-family:Sans;-inkscape-font-specification:Sans Bold"
       d="m 227.85446,342.56717 -2.16759,0.47583 c -0.073,-0.52658 -0.23866,-0.9231 -0.49689,-1.18958 -0.25824,-0.26646 -0.59342,-0.39968 -1.00554,-0.3997 -0.54777,2e-5 -0.98468,0.23 -1.31072,0.68996 -0.32606,0.45998 -0.48908,1.22923 -0.48908,2.30777 0,1.19909 0.16563,2.04607 0.4969,2.54092 0.33126,0.49487 0.776,0.7423 1.3342,0.7423 0.41734,0 0.75904,-0.14433 1.0251,-0.43301 0.26605,-0.28866 0.45386,-0.78511 0.56342,-1.48934 l 2.15975,0.44728 c -0.22432,1.20544 -0.65471,2.11586 -1.29115,2.73126 -0.63646,0.61541 -1.48941,0.92311 -2.55885,0.92311 -1.21552,0 -2.18453,-0.46631 -2.90707,-1.39894 -0.72252,-0.93262 -1.08378,-2.2237 -1.08378,-3.87325 0,-1.66857 0.36257,-2.96757 1.0877,-3.89704 0.72514,-0.92944 1.70589,-1.39417 2.94228,-1.39418 1.01205,1e-5 1.81674,0.26489 2.41407,0.79464 0.59732,0.52977 1.0264,1.33709 1.28725,2.42197 z"
       inkscape:connector-curvature="0" />
    <path
       id="path3807"
       style="font-size:17.6733284px;font-style:normal;font-weight:bold;line-height:125%;letter-spacing:0px;word-spacing:0px;fill:#000000;fill-opacity:1;stroke:#ffff00;stroke-width:0.671;stroke-miterlimit:4;font-family:Sans;-inkscape-font-specification:Sans Bold"
       d="m 234.34155,346.46897 2.19107,0.44728 c -0.28173,0.97704 -0.72645,1.72091 -1.3342,2.23164 -0.60777,0.51072 -1.36812,0.76608 -2.28105,0.76608 -1.44506,0 -2.5145,-0.57416 -3.20833,-1.7225 -0.54777,-0.91994 -0.82166,-2.08095 -0.82166,-3.48307 0,-1.67491 0.35996,-2.98661 1.07988,-3.93511 0.71992,-0.94847 1.63025,-1.42272 2.73101,-1.42273 1.23637,1e-5 2.21191,0.49647 2.92662,1.48935 0.7147,0.9929 1.05639,2.51396 1.0251,4.5632 l -5.50895,0 c 0.0157,0.79305 0.19302,1.41004 0.53212,1.85098 0.33909,0.44093 0.76165,0.6614 1.26768,0.6614 0.34431,0 0.63384,-0.1142 0.8686,-0.3426 0.23475,-0.2284 0.41213,-0.59637 0.53211,-1.10392 z m 0.1252,-2.70272 c -0.0157,-0.774 -0.17998,-1.36244 -0.49298,-1.76532 -0.31302,-0.40286 -0.69384,-0.6043 -1.14248,-0.6043 -0.47995,0 -0.87643,0.21254 -1.18943,0.63761 -0.31301,0.42508 -0.4669,1.00242 -0.46169,1.73201 z"
       inkscape:connector-curvature="0" />
    <path
       id="path3809"
       style="font-size:17.6733284px;font-style:normal;font-weight:bold;line-height:125%;letter-spacing:0px;word-spacing:0px;fill:#000000;fill-opacity:1;stroke:#ffff00;stroke-width:0.671;stroke-miterlimit:4;font-family:Sans;-inkscape-font-specification:Sans Bold"
       d="m 242.8006,349.68557 0,-13.95131 2.19889,0 0,5.02476 c 0.67818,-0.93897 1.48156,-1.40845 2.41016,-1.40846 1.01205,1e-5 1.84935,0.4457 2.51189,1.33708 0.66252,0.89139 0.99379,2.17138 0.9938,3.83994 -10e-6,1.72568 -0.3378,3.05483 -1.01336,3.98745 -0.67558,0.93263 -1.49593,1.39894 -2.46103,1.39894 -0.47473,0 -0.94294,-0.14433 -1.40463,-0.43301 -0.46169,-0.28866 -0.85946,-0.71532 -1.19333,-1.27997 l 0,1.48458 z m 2.18324,-5.27219 c -10e-6,1.04683 0.13563,1.82085 0.4069,2.32206 0.38083,0.71057 0.88686,1.06585 1.5181,1.06585 0.48515,0 0.89858,-0.25219 1.24029,-0.75657 0.3417,-0.50438 0.51255,-1.29901 0.51255,-2.38391 0,-1.15466 -0.17216,-1.98737 -0.51646,-2.4981 -0.34432,-0.51072 -0.78514,-0.76608 -1.32246,-0.76608 -0.5269,0 -0.96511,0.24902 -1.31463,0.74705 -0.34953,0.49805 -0.5243,1.2546 -0.52429,2.2697 z"
       inkscape:connector-curvature="0" />
    <path
       id="path3811"
       style="font-size:17.6733284px;font-style:normal;font-weight:bold;line-height:125%;letter-spacing:0px;word-spacing:0px;fill:#000000;fill-opacity:1;stroke:#ffff00;stroke-width:0.671;stroke-miterlimit:4;font-family:Sans;-inkscape-font-specification:Sans Bold"
       d="m 258.16148,349.68557 0,-1.51313 c -0.30258,0.53927 -0.70037,0.96434 -1.19334,1.27522 -0.493,0.31087 -1.01337,0.46631 -1.56113,0.46631 -0.55821,0 -1.05902,-0.14909 -1.50244,-0.44728 -0.44343,-0.29818 -0.76427,-0.71691 -0.9625,-1.25619 -0.19825,-0.53927 -0.29736,-1.28473 -0.29736,-2.2364 l 0,-6.39514 2.19888,0 0,4.64409 c 0,1.42115 0.0404,2.29192 0.12129,2.61231 0.0809,0.32039 0.22823,0.57417 0.44213,0.76132 0.21388,0.18717 0.48516,0.28074 0.81381,0.28074 0.37561,0 0.7121,-0.1253 1.00946,-0.3759 0.29735,-0.25061 0.5008,-0.56148 0.61036,-0.93263 0.10955,-0.37114 0.16433,-1.27997 0.16433,-2.7265 l 0,-4.26343 2.19889,0 0,10.10661 z"
       inkscape:connector-curvature="0" />
    <path
       id="path3813"
       style="font-size:17.6733284px;font-style:normal;font-weight:bold;line-height:125%;letter-spacing:0px;word-spacing:0px;fill:#000000;fill-opacity:1;stroke:#ffff00;stroke-width:0.671;stroke-miterlimit:4;font-family:Sans;-inkscape-font-specification:Sans Bold"
       d="m 266.2997,339.57896 0,2.13171 -1.50244,0 0,4.0731 c 0,0.82478 0.0143,1.30536 0.0431,1.44177 0.0287,0.1364 0.0939,0.24902 0.19563,0.33784 0.10172,0.0888 0.22563,0.13322 0.3717,0.13322 0.20345,0 0.4982,-0.0857 0.88425,-0.25695 l 0.18781,2.07463 c -0.51126,0.26645 -1.09032,0.39969 -1.73721,0.39969 -0.39647,0 -0.75382,-0.0809 -1.07204,-0.24268 -0.31823,-0.16178 -0.55168,-0.37114 -0.70036,-0.62809 -0.14868,-0.25694 -0.25172,-0.6043 -0.3091,-1.04206 -0.047,-0.31088 -0.0705,-0.93897 -0.0705,-1.88429 l 0,-4.40618 -1.00946,0 0,-2.13171 1.00946,0 0,-2.008 2.20671,-1.56071 0,3.56871 z"
       inkscape:connector-curvature="0" />
    <path
       id="path3815"
       style="font-size:17.6733284px;font-style:normal;font-weight:bold;line-height:125%;letter-spacing:0px;word-spacing:0px;fill:#000000;fill-opacity:1;stroke:#ffff00;stroke-width:0.671;stroke-miterlimit:4;font-family:Sans;-inkscape-font-specification:Sans Bold"
       d="m 272.28597,338.20857 0,-2.47431 2.19889,0 0,2.47431 z m 0,11.477 0,-10.10661 2.19889,0 0,10.10661 z"
       inkscape:connector-curvature="0" />
    <path
       id="path3817"
       style="font-size:17.6733284px;font-style:normal;font-weight:bold;line-height:125%;letter-spacing:0px;word-spacing:0px;fill:#000000;fill-opacity:1;stroke:#ffff00;stroke-width:0.671;stroke-miterlimit:4;font-family:Sans;-inkscape-font-specification:Sans Bold"
       d="m 275.956,346.80204 2.20671,-0.40921 c 0.0939,0.52024 0.28431,0.91518 0.57124,1.18482 0.28692,0.26964 0.68861,0.40446 1.20508,0.40446 0.56862,0 0.9964,-0.12689 1.28333,-0.38067 0.19302,-0.17764 0.28953,-0.41556 0.28954,-0.71374 -1e-5,-0.20303 -0.0521,-0.37115 -0.15651,-0.50439 -0.10956,-0.12688 -0.35475,-0.24425 -0.73557,-0.3521 -1.77372,-0.47584 -2.89794,-0.91042 -3.37266,-1.30378 -0.65732,-0.54561 -0.98598,-1.30376 -0.98598,-2.27446 0,-0.87552 0.28432,-1.61147 0.85295,-2.20785 0.56863,-0.59636 1.45027,-0.89455 2.64492,-0.89456 1.13725,1e-5 1.98237,0.22524 2.53536,0.67568 0.55298,0.45046 0.93381,1.11662 1.14249,1.99849 l -2.07368,0.4663 c -0.0887,-0.39334 -0.25694,-0.6947 -0.50473,-0.90407 -0.2478,-0.20936 -0.60124,-0.31404 -1.06031,-0.31405 -0.57908,10e-6 -0.99381,0.0984 -1.24421,0.29502 -0.16694,0.13958 -0.25041,0.32039 -0.25041,0.54244 0,0.19034 0.073,0.35212 0.21911,0.48535 0.19823,0.17765 0.88294,0.42826 2.05412,0.7518 1.17116,0.32357 1.98889,0.7201 2.45319,1.18958 0.45908,0.47583 0.68861,1.13882 0.68862,1.98897 -10e-6,0.92628 -0.31823,1.7225 -0.95467,2.38865 -0.63646,0.66617 -1.57809,0.99925 -2.8249,0.99925 -1.13205,0 -2.02804,-0.27916 -2.68796,-0.83746 -0.65992,-0.55831 -1.09162,-1.31646 -1.29507,-2.27447 z"
       inkscape:connector-curvature="0" />
    <path
       id="path3819"
       style="font-size:17.6733284px;font-style:normal;font-weight:bold;line-height:125%;letter-spacing:0px;word-spacing:0px;fill:#000000;fill-opacity:1;stroke:#ffff00;stroke-width:0.671;stroke-miterlimit:4;font-family:Sans;-inkscape-font-specification:Sans Bold"
       d="m 289.93182,339.57896 2.02672,0 0,1.37991 c 0.72513,-1.0722 1.58852,-1.6083 2.59015,-1.60831 0.53211,1e-5 0.99379,0.13324 1.38506,0.3997 0.39125,0.26647 0.71209,0.66935 0.9625,1.20861 0.36517,-0.53926 0.75904,-0.94214 1.18161,-1.20861 0.42255,-0.26646 0.8738,-0.39969 1.35376,-0.3997 0.61035,1e-5 1.12681,0.1507 1.54939,0.45205 0.42254,0.30136 0.73816,0.74388 0.94685,1.32756 0.15127,0.43142 0.22691,1.12931 0.22692,2.09364 l 0,6.46176 -2.19887,0 0,-5.77656 c -1e-5,-1.00242 -0.0756,-1.64953 -0.22694,-1.94139 -0.20346,-0.38066 -0.51647,-0.57099 -0.93902,-0.57099 -0.3078,0 -0.59734,0.11421 -0.86859,0.3426 -0.27129,0.22841 -0.46692,0.56307 -0.5869,1.004 -0.11999,0.44094 -0.17999,1.13723 -0.17998,2.08888 l 0,4.85346 -2.19888,0 0,-5.53865 c 0,-0.98338 -0.0391,-1.61781 -0.11738,-1.90331 -0.0783,-0.28549 -0.19955,-0.49803 -0.36387,-0.63761 -0.16434,-0.13957 -0.38735,-0.20937 -0.66906,-0.20937 -0.33909,0 -0.64427,0.11103 -0.91555,0.33308 -0.27127,0.22206 -0.4656,0.54245 -0.58297,0.96118 -0.11739,0.41873 -0.17607,1.11344 -0.17607,2.08413 l 0,4.91055 -2.19888,0 z"
       inkscape:connector-curvature="0" />
    <path
       id="path3821"
       style="font-size:17.6733284px;font-style:normal;font-weight:bold;line-height:125%;letter-spacing:0px;word-spacing:0px;fill:#000000;fill-opacity:1;stroke:#ffff00;stroke-width:0.671;stroke-miterlimit:4;font-family:Sans;-inkscape-font-specification:Sans Bold"
       d="m 304.33802,338.20857 0,-2.47431 2.19888,0 0,2.47431 z m 0,11.477 0,-10.10661 2.19888,0 0,10.10661 z"
       inkscape:connector-curvature="0" />
    <path
       id="path3823"
       style="font-size:17.6733284px;font-style:normal;font-weight:bold;line-height:125%;letter-spacing:0px;word-spacing:0px;fill:#000000;fill-opacity:1;stroke:#ffff00;stroke-width:0.671;stroke-miterlimit:4;font-family:Sans;-inkscape-font-specification:Sans Bold"
       d="m 316.34188,349.68557 -2.19889,0 0,-5.15799 c 0,-1.09123 -0.047,-1.79703 -0.14085,-2.11744 -0.0939,-0.32038 -0.2465,-0.56939 -0.45778,-0.74705 -0.21128,-0.17763 -0.4656,-0.26646 -0.76295,-0.26646 -0.38084,0 -0.72253,0.12689 -1.0251,0.38066 -0.30258,0.25379 -0.50995,0.59004 -0.62211,1.00876 -0.11216,0.41874 -0.16824,1.19275 -0.16823,2.32204 l 0,4.57748 -2.19889,0 0,-10.10661 2.04237,0 0,1.48459 c 0.72514,-1.14199 1.63808,-1.71298 2.73883,-1.71299 0.48515,1e-5 0.92858,0.10631 1.33028,0.31881 0.40169,0.21255 0.70557,0.48377 0.91165,0.81367 0.20605,0.32991 0.34951,0.70423 0.43038,1.12296 0.0809,0.41873 0.12128,1.01827 0.12129,1.79863 z"
       inkscape:connector-curvature="0" />
    <path
       id="path3825"
       style="font-size:17.6733284px;font-style:normal;font-weight:bold;line-height:125%;letter-spacing:0px;word-spacing:0px;fill:#000000;fill-opacity:1;stroke:#ffff00;stroke-width:0.671;stroke-miterlimit:4;font-family:Sans;-inkscape-font-specification:Sans Bold"
       d="m 323.3924,346.46897 2.19106,0.44728 c -0.28172,0.97704 -0.72645,1.72091 -1.3342,2.23164 -0.60776,0.51072 -1.36811,0.76608 -2.28105,0.76608 -1.44505,0 -2.51449,-0.57416 -3.20834,-1.7225 -0.54776,-0.91994 -0.82164,-2.08095 -0.82164,-3.48307 0,-1.67491 0.35996,-2.98661 1.07988,-3.93511 0.71992,-0.94847 1.63025,-1.42272 2.73099,-1.42273 1.23639,1e-5 2.21192,0.49647 2.92664,1.48935 0.71468,0.9929 1.05639,2.51396 1.0251,4.5632 l -5.50895,0 c 0.0157,0.79305 0.19302,1.41004 0.53211,1.85098 0.3391,0.44093 0.76165,0.6614 1.26769,0.6614 0.3443,0 0.63384,-0.1142 0.8686,-0.3426 0.23475,-0.2284 0.41211,-0.59637 0.53211,-1.10392 z m 0.1252,-2.70272 c -0.0157,-0.774 -0.17998,-1.36244 -0.49299,-1.76532 -0.31301,-0.40286 -0.69384,-0.6043 -1.14247,-0.6043 -0.47996,0 -0.87643,0.21254 -1.18944,0.63761 -0.31301,0.42508 -0.46691,1.00242 -0.46168,1.73201 z"
       inkscape:connector-curvature="0" />
    <path
       id="path3827"
       style="font-size:17.6733284px;font-style:normal;font-weight:bold;line-height:125%;letter-spacing:0px;word-spacing:0px;fill:#000000;fill-opacity:1;stroke:#ffff00;stroke-width:0.671;stroke-miterlimit:4;font-family:Sans;-inkscape-font-specification:Sans Bold"
       d="m 327.92319,342.25313 0,-2.67417 2.19889,0 0,2.67417 z m 0,7.43244 0,-2.67416 2.19889,0 0,2.67416 z"
       inkscape:connector-curvature="0" />
    <path
       id="path3829"
       style="font-size:17.6733284px;font-style:normal;font-weight:bold;line-height:125%;letter-spacing:0px;word-spacing:0px;fill:#000000;fill-opacity:1;stroke:#ffff00;stroke-width:0.671;stroke-miterlimit:4;font-family:Sans;-inkscape-font-specification:Sans Bold"
       d="m 332.24269,353.78722 c 0.433,-1.12931 0.73818,-1.99532 0.91555,-2.59803 0.17737,-0.60271 0.3417,-1.29743 0.49299,-2.08412 0.15129,-0.78671 0.26345,-1.53376 0.33648,-2.24117 0.073,-0.7074 0.10956,-1.43224 0.10956,-2.17454 0,-1.50996 -0.13303,-2.93903 -0.39909,-4.28721 -0.26606,-1.34817 -0.75643,-2.98344 -1.47114,-4.9058 l 1.49462,0 c 0.78774,1.36406 1.39941,2.81058 1.83501,4.33956 0.4356,1.52901 0.6534,3.0802 0.65341,4.65361 -1e-5,1.32598 -0.17217,2.74712 -0.51647,4.26342 -0.39126,1.7003 -1.03553,3.37839 -1.93282,5.03428 z"
       inkscape:connector-curvature="0" />
    <path
       id="path3768"
       style="font-size:30.99575233px;font-style:normal;font-weight:bold;line-height:125%;letter-spacing:0px;word-spacing:0px;fill:#ffff00;fill-opacity:1;stroke:#ff0000;stroke-width:0.60000002;stroke-miterlimit:4;font-family:Sans;-inkscape-font-specification:Sans Bold"
       d="m 156.823,324.5179 0,-25.59985 5.81092,0 3.48918,17.46239 3.44982,-17.46239 5.82403,0 0,25.59985 -3.60723,0 0,-20.15159 -3.8171,20.15159 -3.7384,0 -3.80399,-20.15159 0,20.15159 z"
       inkscape:connector-curvature="0" />
    <path
       id="path3770"
       style="font-size:30.99575233px;font-style:normal;font-weight:bold;line-height:125%;letter-spacing:0px;word-spacing:0px;fill:#ffff00;fill-opacity:1;stroke:#ff0000;stroke-width:0.60000002;stroke-miterlimit:4;font-family:Sans;-inkscape-font-specification:Sans Bold"
       d="m 177.50882,305.97285 3.92204,0 3.33177,13.16664 3.25306,-13.16664 3.8171,0 -4.91894,17.84656 -0.87885,3.23054 c -0.32357,1.08266 -0.63183,1.90921 -0.92477,2.47966 -0.29295,0.57043 -0.62963,1.03319 -1.01002,1.38826 -0.38041,0.35506 -0.84826,0.63154 -1.40354,0.82947 -0.5553,0.1979 -1.18274,0.29685 -1.88232,0.29685 -0.70833,0 -1.40354,-0.099 -2.08563,-0.29685 l -0.32794,-3.84174 c 0.57717,0.15135 1.09748,0.22701 1.56096,0.22701 0.85698,0 1.49098,-0.33469 1.90199,-1.00408 0.41099,-0.66939 0.72581,-1.52214 0.94443,-2.55824 z"
       inkscape:connector-curvature="0" />
    <path
       id="path3772"
       style="font-size:30.99575233px;font-style:normal;font-weight:bold;line-height:125%;letter-spacing:0px;word-spacing:0px;fill:#ffff00;fill-opacity:1;stroke:#ff0000;stroke-width:0.60000002;stroke-miterlimit:4;font-family:Sans;-inkscape-font-specification:Sans Bold"
       d="m 201.55263,305.97285 3.43671,0 0,2.72413 c 0.44598,-0.9313 1.04937,-1.68801 1.81017,-2.27011 0.76079,-0.58205 1.60466,-0.87309 2.53162,-0.87311 1.61778,2e-5 2.99071,0.84403 4.1188,2.53204 1.12807,1.68805 1.69211,4.03964 1.69212,7.05481 -1e-5,3.09666 -0.56843,5.50356 -1.70524,7.22068 -1.13683,1.71714 -2.51414,2.57571 -4.13191,2.57571 -0.76955,0 -1.46695,-0.20373 -2.0922,-0.61118 -0.62525,-0.40746 -1.2833,-1.10595 -1.97413,-2.09549 l 0,9.34238 -3.68594,0 z m 3.64658,8.9582 c 0,2.08386 0.31044,3.62346 0.93132,4.61881 0.62088,0.99535 1.3773,1.49303 2.26928,1.49303 0.85698,0 1.56968,-0.45693 2.1381,-1.3708 0.56841,-0.91385 0.85261,-2.41271 0.85263,-4.49656 -2e-5,-1.94413 -0.29297,-3.38769 -0.87886,-4.33067 -0.58591,-0.94295 -1.31173,-1.41444 -2.17746,-1.41446 -0.90072,2e-5 -1.6484,0.46277 -2.24303,1.38826 -0.59466,0.92552 -0.89198,2.29632 -0.89198,4.11239 z"
       inkscape:connector-curvature="0" />
    <path
       id="path3774"
       style="font-size:30.99575233px;font-style:normal;font-weight:bold;line-height:125%;letter-spacing:0px;word-spacing:0px;fill:#ffff00;fill-opacity:1;stroke:#ff0000;stroke-width:0.60000002;stroke-miterlimit:4;font-family:Sans;-inkscape-font-specification:Sans Bold"
       d="m 220.83491,311.63067 -3.34489,-0.80328 c 0.37603,-1.79279 1.02314,-3.11992 1.94135,-3.98142 0.9182,-0.86145 2.28238,-1.29219 4.09256,-1.29221 1.64402,2e-5 2.86829,0.25904 3.67282,0.77707 0.80451,0.51807 1.37074,1.17582 1.69868,1.97326 0.32791,0.79746 0.49188,2.26138 0.49189,4.39178 l -0.0393,5.72766 c -1e-5,1.62983 0.059,2.83182 0.17708,3.60599 0.11804,0.77417 0.33884,1.60362 0.66242,2.48838 l -3.64658,0 c -0.0962,-0.32596 -0.21426,-0.80908 -0.35417,-1.44937 -0.0612,-0.29105 -0.10495,-0.48313 -0.13117,-0.57627 -0.62964,0.81492 -1.30298,1.4261 -2.02005,1.83356 -0.71708,0.40745 -1.48225,0.61118 -2.2955,0.61118 -1.43416,0 -2.56442,-0.51805 -3.3908,-1.55415 -0.82638,-1.0361 -1.23957,-2.34577 -1.23957,-3.92903 0,-1.04775 0.18801,-1.98198 0.56404,-2.80271 0.37602,-0.82074 0.90289,-1.44938 1.58061,-1.88595 0.67773,-0.43654 1.65496,-0.8178 2.9317,-1.14379 1.72272,-0.43072 2.91638,-0.83235 3.58099,-1.2049 l 0,-0.48895 c -1e-5,-0.94294 -0.1749,-1.61525 -0.52468,-2.0169 -0.3498,-0.40162 -1.01004,-0.60244 -1.9807,-0.60245 -0.65586,10e-6 -1.16743,0.17172 -1.53472,0.51514 -0.36728,0.34344 -0.6646,0.94589 -0.89196,1.80736 z m 4.93206,3.98141 c -0.47222,0.20957 -1.21991,0.45986 -2.24304,0.75089 -1.02314,0.29104 -1.69212,0.57626 -2.00693,0.85566 -0.48096,0.45403 -0.72145,1.03028 -0.72145,1.72877 0,0.68686 0.19239,1.28058 0.57717,1.78117 0.38476,0.50059 0.87447,0.75089 1.46912,0.75087 0.6646,2e-5 1.2986,-0.29103 1.90199,-0.87311 0.44598,-0.44237 0.73893,-0.98371 0.87885,-1.624 0.0962,-0.4191 0.14428,-1.21654 0.14429,-2.39235 z"
       inkscape:connector-curvature="0" />
    <path
       id="path3776"
       style="font-size:30.99575233px;font-style:normal;font-weight:bold;line-height:125%;letter-spacing:0px;word-spacing:0px;fill:#ffff00;fill-opacity:1;stroke:#ff0000;stroke-width:0.60000002;stroke-miterlimit:4;font-family:Sans;-inkscape-font-specification:Sans Bold"
       d="m 231.7353,319.22681 3.69905,-0.75089 c 0.1574,0.95461 0.47658,1.67931 0.95755,2.17407 0.48096,0.49477 1.15431,0.74215 2.02005,0.74215 0.95318,0 1.67025,-0.23283 2.15122,-0.69849 0.32354,-0.32596 0.48532,-0.76253 0.48534,-1.30968 -2e-5,-0.37253 -0.0875,-0.68104 -0.26235,-0.92551 -0.18365,-0.23283 -0.59465,-0.4482 -1.23301,-0.64611 -2.97324,-0.87312 -4.85774,-1.67056 -5.65352,-2.39235 -1.10184,-1.00117 -1.65276,-2.39233 -1.65276,-4.17351 0,-1.60652 0.47659,-2.95694 1.42977,-4.05127 0.95319,-1.0943 2.43105,-1.64144 4.43361,-1.64146 1.90636,2e-5 3.32301,0.41329 4.24998,1.23983 0.92693,0.82657 1.5653,2.04893 1.91511,3.66709 l -3.47606,0.85566 c -0.14867,-0.72176 -0.43069,-1.27473 -0.84606,-1.65892 -0.41539,-0.38416 -1.00784,-0.57625 -1.77738,-0.57626 -0.97068,10e-6 -1.66589,0.18046 -2.08563,0.54133 -0.27984,0.25613 -0.41975,0.58792 -0.41975,0.99536 0,0.34926 0.12242,0.64612 0.36728,0.89058 0.3323,0.32598 1.48005,0.78582 3.44326,1.37953 1.9632,0.59373 3.33394,1.32133 4.11224,2.18279 0.76953,0.87313 1.1543,2.08968 1.15432,3.64964 -2e-5,1.69968 -0.53346,3.16069 -1.6003,4.38306 -1.06688,1.22237 -2.64532,1.83355 -4.73531,1.83355 -1.89762,0 -3.39955,-0.51222 -4.50576,-1.53668 -1.10622,-1.02446 -1.82984,-2.41564 -2.17089,-4.17351 z"
       inkscape:connector-curvature="0" />
    <path
       id="path3778"
       style="font-size:30.99575233px;font-style:normal;font-weight:bold;line-height:125%;letter-spacing:0px;word-spacing:0px;fill:#ffff00;fill-opacity:1;stroke:#ff0000;stroke-width:0.60000002;stroke-miterlimit:4;font-family:Sans;-inkscape-font-specification:Sans Bold"
       d="m 254.37557,305.97285 0,3.91158 -2.5185,0 0,7.4739 c 0,1.51341 0.024,2.39526 0.0721,2.64555 0.0481,0.2503 0.1574,0.45693 0.32793,0.61992 0.17052,0.16298 0.37821,0.24447 0.62307,0.24446 0.34104,10e-6 0.83512,-0.15716 1.48224,-0.47147 l 0.31481,3.80679 c -0.857,0.48895 -1.82767,0.73342 -2.91201,0.73342 -0.66461,0 -1.26363,-0.14843 -1.79706,-0.44529 -0.53344,-0.29686 -0.92476,-0.68103 -1.17399,-1.15252 -0.24923,-0.47148 -0.42193,-1.10885 -0.51813,-1.91213 -0.0787,-0.57043 -0.11805,-1.72295 -0.11805,-3.45755 l 0,-8.08508 -1.69212,0 0,-3.91158 1.69212,0 0,-3.68456 3.69905,-2.86383 0,6.54839 z"
       inkscape:connector-curvature="0" />
    <path
       id="path3780"
       style="font-size:30.99575233px;font-style:normal;font-weight:bold;line-height:125%;letter-spacing:0px;word-spacing:0px;fill:#ffff00;fill-opacity:1;stroke:#ff0000;stroke-width:0.60000002;stroke-miterlimit:4;font-family:Sans;-inkscape-font-specification:Sans Bold"
       d="m 265.02673,318.61561 3.67282,0.82074 c -0.47223,1.79281 -1.21773,3.15778 -2.23648,4.09493 -1.01878,0.93715 -2.29333,1.40572 -3.82366,1.40572 -2.42232,0 -4.215,-1.05356 -5.37805,-3.16069 -0.91821,-1.68803 -1.37731,-3.81843 -1.37731,-6.39124 0,-3.07336 0.60339,-5.48026 1.81018,-7.22069 1.20677,-1.7404 2.73273,-2.6106 4.5779,-2.61062 2.0725,2e-5 3.70778,0.91097 4.90583,2.73286 1.19802,1.82192 1.7708,4.61299 1.71834,8.37321 l -9.23449,0 c 0.0263,1.45521 0.32355,2.58735 0.89196,3.39643 0.56841,0.8091 1.27674,1.21364 2.12498,1.21364 0.57716,0 1.06249,-0.20954 1.45602,-0.62865 0.3935,-0.41909 0.69083,-1.0943 0.89196,-2.02564 z m 0.20988,-4.95931 c -0.0263,-1.42026 -0.30171,-2.50002 -0.82638,-3.23927 -0.5247,-0.73923 -1.16307,-1.10885 -1.91511,-1.10886 -0.80453,10e-6 -1.46914,0.39001 -1.99382,1.16998 -0.52469,0.77999 -0.78266,1.83938 -0.77391,3.17815 z"
       inkscape:connector-curvature="0" />
    <path
       id="path3782"
       style="font-size:30.99575233px;font-style:normal;font-weight:bold;line-height:125%;letter-spacing:0px;word-spacing:0px;fill:#ffff00;fill-opacity:1;stroke:#ff0000;stroke-width:0.60000002;stroke-miterlimit:4;font-family:Sans;-inkscape-font-specification:Sans Bold"
       d="m 279.20642,324.5179 0,-25.59985 3.68593,0 0,9.22014 c 1.13682,-1.72294 2.48351,-2.58441 4.0401,-2.58443 1.69648,2e-5 3.10001,0.81783 4.21062,2.45346 1.11057,1.63566 1.66586,3.98435 1.66588,7.04608 -2e-5,3.16651 -0.56624,5.60542 -1.69868,7.31673 -1.13246,1.71132 -2.50758,2.56697 -4.12536,2.56697 -0.79578,0 -1.58063,-0.26485 -2.35453,-0.79454 -0.77393,-0.52969 -1.44071,-1.31258 -2.00038,-2.34869 l 0,2.72413 z m 3.6597,-9.67416 c -1e-5,1.92088 0.22735,3.34115 0.68209,4.26082 0.63836,1.30387 1.48661,1.9558 2.54474,1.95579 0.81325,10e-6 1.50628,-0.46275 2.07907,-1.38826 0.57278,-0.9255 0.85917,-2.3836 0.85918,-4.37433 -1e-5,-2.11876 -0.2886,-3.64671 -0.86574,-4.58387 -0.57716,-0.93714 -1.3161,-1.40571 -2.2168,-1.40572 -0.88324,10e-6 -1.6178,0.45694 -2.20369,1.3708 -0.58591,0.91387 -0.87886,2.30213 -0.87885,4.16477 z"
       inkscape:connector-curvature="0" />
    <path
       id="path3784"
       style="font-size:30.99575233px;font-style:normal;font-weight:bold;line-height:125%;letter-spacing:0px;word-spacing:0px;fill:#ffff00;fill-opacity:1;stroke:#ff0000;stroke-width:0.60000002;stroke-miterlimit:4;font-family:Sans;-inkscape-font-specification:Sans Bold"
       d="m 304.95547,324.5179 0,-2.77652 c -0.50721,0.98955 -1.174,1.76953 -2.00037,2.33997 -0.82639,0.57044 -1.69869,0.85565 -2.61688,0.85565 -0.9357,0 -1.7752,-0.27358 -2.5185,-0.82073 -0.74331,-0.54715 -1.28112,-1.3155 -1.61342,-2.30504 -0.3323,-0.98952 -0.49845,-2.35741 -0.49845,-4.10366 l 0,-11.73472 3.68593,0 0,8.52165 c -10e-6,2.60772 0.0678,4.20553 0.20332,4.79342 0.13553,0.5879 0.38258,1.05356 0.74112,1.39699 0.35853,0.34343 0.81326,0.51514 1.36419,0.51514 0.62961,0 1.19365,-0.22992 1.69212,-0.68977 0.49844,-0.45983 0.83948,-1.03027 1.02314,-1.7113 0.18362,-0.68103 0.27545,-2.34869 0.27546,-5.00298 l 0,-7.82315 3.68593,0 0,18.54505 z"
       inkscape:connector-curvature="0" />
    <path
       id="path3786"
       style="font-size:30.99575233px;font-style:normal;font-weight:bold;line-height:125%;letter-spacing:0px;word-spacing:0px;fill:#ffff00;fill-opacity:1;stroke:#ff0000;stroke-width:0.60000002;stroke-miterlimit:4;font-family:Sans;-inkscape-font-specification:Sans Bold"
       d="m 318.59735,305.97285 0,3.91158 -2.5185,0 0,7.4739 c 0,1.51341 0.024,2.39526 0.0721,2.64555 0.0481,0.2503 0.1574,0.45693 0.32794,0.61992 0.17051,0.16298 0.3782,0.24447 0.62306,0.24446 0.34104,10e-6 0.83512,-0.15716 1.48225,-0.47147 l 0.31481,3.80679 c -0.857,0.48895 -1.82767,0.73342 -2.91202,0.73342 -0.66461,0 -1.26363,-0.14843 -1.79706,-0.44529 -0.53343,-0.29686 -0.92476,-0.68103 -1.17399,-1.15252 -0.24922,-0.47148 -0.42193,-1.10885 -0.51813,-1.91213 -0.0787,-0.57043 -0.11805,-1.72295 -0.11805,-3.45755 l 0,-8.08508 -1.69212,0 0,-3.91158 1.69212,0 0,-3.68456 3.69905,-2.86383 0,6.54839 z"
       inkscape:connector-curvature="0" />
    <path
       id="path3788"
       style="font-size:30.99575233px;font-style:normal;font-weight:bold;line-height:125%;letter-spacing:0px;word-spacing:0px;fill:#ffff00;fill-opacity:1;stroke:#ff0000;stroke-width:0.60000002;stroke-miterlimit:4;font-family:Sans;-inkscape-font-specification:Sans Bold"
       d="m 327.56952,305.97285 0,3.91158 -2.5185,0 0,7.4739 c -10e-6,1.51341 0.024,2.39526 0.0721,2.64555 0.0481,0.2503 0.1574,0.45693 0.32793,0.61992 0.17051,0.16298 0.3782,0.24447 0.62306,0.24446 0.34104,10e-6 0.83512,-0.15716 1.48225,-0.47147 l 0.31481,3.80679 c -0.857,0.48895 -1.82767,0.73342 -2.91202,0.73342 -0.66461,0 -1.26363,-0.14843 -1.79705,-0.44529 -0.53344,-0.29686 -0.92477,-0.68103 -1.17399,-1.15252 -0.24923,-0.47148 -0.42194,-1.10885 -0.51813,-1.91213 -0.0787,-0.57043 -0.11806,-1.72295 -0.11806,-3.45755 l 0,-8.08508 -1.69212,0 0,-3.91158 1.69212,0 0,-3.68456 3.69905,-2.86383 0,6.54839 z"
       inkscape:connector-curvature="0" />
    <path
       id="path3790"
       style="font-size:30.99575233px;font-style:normal;font-weight:bold;line-height:125%;letter-spacing:0px;word-spacing:0px;fill:#ffff00;fill-opacity:1;stroke:#ff0000;stroke-width:0.60000002;stroke-miterlimit:4;font-family:Sans;-inkscape-font-specification:Sans Bold"
       d="m 329.30098,314.98345 c 0,-1.62982 0.3017,-3.20725 0.90509,-4.73231 0.60339,-1.52504 1.4582,-2.68919 2.56442,-3.49248 1.10621,-0.80325 2.3414,-1.20488 3.7056,-1.2049 2.10748,2e-5 3.83458,0.91097 5.18129,2.73286 1.34668,1.82192 2.02004,4.12404 2.02005,6.90637 -1e-5,2.80563 -0.67992,5.13104 -2.03972,6.97622 -1.35983,1.84519 -3.07162,2.76779 -5.13539,2.76779 -1.27674,0 -2.49445,-0.38417 -3.65314,-1.15251 -1.15868,-0.76836 -2.03972,-1.89467 -2.64311,-3.37898 -0.60339,-1.4843 -0.90509,-3.29165 -0.90509,-5.42206 z m 3.77776,0.26193 c 0,1.83938 0.32792,3.24801 0.98379,4.22589 0.65585,0.9779 1.46475,1.46684 2.42668,1.46684 0.96192,0 1.76862,-0.48894 2.42012,-1.46684 0.65147,-0.97788 0.97722,-2.39815 0.97723,-4.26081 -10e-6,-1.81609 -0.32576,-3.21308 -0.97723,-4.19098 -0.6515,-0.97787 -1.4582,-1.46682 -2.42012,-1.46684 -0.96193,2e-5 -1.77083,0.48897 -2.42668,1.46684 -0.65587,0.9779 -0.98379,2.38653 -0.98379,4.2259 z"
       inkscape:connector-curvature="0" />
    <path
       id="path3792"
       style="font-size:30.99575233px;font-style:normal;font-weight:bold;line-height:125%;letter-spacing:0px;word-spacing:0px;fill:#ffff00;fill-opacity:1;stroke:#ff0000;stroke-width:0.60000002;stroke-miterlimit:4;font-family:Sans;-inkscape-font-specification:Sans Bold"
       d="m 359.24754,324.5179 -3.68593,0 0,-9.4646 c -10e-6,-2.00235 -0.0787,-3.29748 -0.23611,-3.88538 -0.15742,-0.58789 -0.4132,-1.04483 -0.76736,-1.3708 -0.35417,-0.32595 -0.78048,-0.48894 -1.27892,-0.48895 -0.63838,10e-6 -1.21116,0.23285 -1.71835,0.69849 -0.50721,0.46569 -0.85481,1.08268 -1.04282,1.85102 -0.18802,0.76835 -0.28203,2.18863 -0.28202,4.26082 l 0,8.3994 -3.68593,0 0,-18.54505 3.42359,0 0,2.72413 c 1.21552,-2.09547 2.74585,-3.1432 4.59101,-3.14322 0.81326,2e-5 1.55657,0.19501 2.22993,0.58499 0.67334,0.39 1.18272,0.88769 1.52815,1.49303 0.34541,0.60537 0.58588,1.29223 0.72144,2.06056 0.13554,0.76836 0.20331,1.86849 0.20332,3.30039 z"
       inkscape:connector-curvature="0" />
  </g>
</svg>
